<svg width="50" height="50" viewBox="0 0 50 50" fill="none" xmlns="http://www.w3.org/2000/svg">
<path d="M48.1972 43.2422L46.6542 37.4418C46.6194 37.3112 46.5466 37.1938 46.4451 37.1045C46.3436 37.0152 46.2179 36.958 46.0839 36.9401C45.9499 36.9223 45.8136 36.9445 45.6922 37.004C45.5708 37.0635 45.4698 37.1577 45.4019 37.2746L43.6152 40.357L39.1488 37.7398V22.548C39.1479 22.5114 39.1443 22.4748 39.1378 22.4387C39.143 22.411 39.1467 22.3831 39.1488 22.3551C39.1489 22.2358 39.1177 22.1185 39.0584 22.015C38.999 21.9115 38.9135 21.8254 38.8105 21.7652L25.6835 14.075V8.90899H29.2441C29.3792 8.90884 29.5113 8.86863 29.6236 8.79343C29.736 8.71823 29.8235 8.61143 29.8751 8.48651C29.9267 8.36159 29.9402 8.22417 29.9137 8.09162C29.8873 7.95907 29.8221 7.83733 29.7265 7.7418L25.4831 3.49766C25.3549 3.36956 25.1811 3.29761 24.9999 3.29761C24.8187 3.29761 24.6449 3.36956 24.5167 3.49766L20.2734 7.7418C20.1777 7.83738 20.1125 7.95919 20.0861 8.09181C20.0597 8.22444 20.0732 8.36192 20.1249 8.48687C20.1766 8.61182 20.2643 8.71862 20.3767 8.79376C20.4891 8.86889 20.6213 8.90899 20.7566 8.90899H24.3163V14.075L11.1894 21.7652C11.0864 21.8255 11.001 21.9116 10.9416 22.0151C10.8823 22.1186 10.8511 22.2358 10.8511 22.3551C10.8531 22.3832 10.8569 22.4111 10.8624 22.4387C10.8557 22.4748 10.8519 22.5113 10.8511 22.548V37.7391L6.38508 40.3563L4.59797 37.2734C4.53008 37.1565 4.42906 37.0624 4.30768 37.0028C4.1863 36.9433 4.04999 36.9211 3.91599 36.939C3.78198 36.9569 3.65629 37.0141 3.55477 37.1034C3.45326 37.1926 3.38048 37.31 3.34563 37.4406L1.80266 43.2422C1.75617 43.4175 1.78115 43.6041 1.87211 43.7609C1.96308 43.9178 2.11259 44.0322 2.28782 44.0789L8.0886 45.6219C8.21924 45.6566 8.35722 45.6517 8.48512 45.608C8.61301 45.5643 8.72507 45.4836 8.80714 45.3762C8.8892 45.2688 8.93759 45.1395 8.94618 45.0046C8.95477 44.8697 8.92317 44.7353 8.85539 44.6184L7.07024 41.5383L11.5343 38.923L24.6538 46.6086C24.6616 46.6133 24.6706 46.6148 24.6784 46.6191C24.7159 46.6391 24.7551 46.6556 24.7956 46.6684C24.8093 46.6727 24.8226 46.6777 24.8366 46.6813C24.9428 46.7099 25.0547 46.7099 25.1609 46.6813C25.1749 46.6777 25.1882 46.6727 25.1999 46.6684C25.2404 46.6556 25.2796 46.6391 25.3171 46.6191C25.3249 46.6148 25.3339 46.6133 25.3417 46.6086L38.4652 38.923L42.9292 41.5402L41.1445 44.6188C41.0842 44.7227 41.0524 44.8406 41.0522 44.9607C41.052 45.0808 41.0835 45.1989 41.1435 45.303C41.2034 45.407 41.2897 45.4935 41.3937 45.5536C41.4977 45.6137 41.6157 45.6453 41.7359 45.6453C41.7952 45.6452 41.8543 45.6374 41.9116 45.6223L47.7124 44.0793C47.8877 44.0325 48.0372 43.918 48.1281 43.7611C48.2189 43.6041 48.2438 43.4175 48.1972 43.2422ZM24.9999 4.94766L27.5941 7.5418H22.4058L24.9999 4.94766ZM3.29993 42.932L4.24289 39.3871L6.84485 43.875L3.29993 42.932ZM24.9999 15.259L37.1128 22.3551L24.9999 29.4508L12.8874 22.3551L24.9999 15.259ZM12.2183 23.5477L24.3163 30.6348V44.8262L12.2183 37.7391V23.5477ZM25.6835 44.8262V30.6348L37.7816 23.5477V37.7391L25.6835 44.8262ZM43.155 43.875L45.757 39.3871L46.7003 42.932L43.155 43.875Z" fill="#FF0808"/>
</svg>
