<svg width="50" height="50" viewBox="0 0 50 50" fill="none" xmlns="http://www.w3.org/2000/svg">
<path fill-rule="evenodd" clip-rule="evenodd" d="M10.2473 27.1589C9.77006 27.1561 9.46617 27.6656 9.68839 28.085C10.4067 29.4622 11.3412 30.75 12.4834 31.8933C14.8356 34.245 15.2156 36.5833 14.6795 39.6478L13.7162 45.1711C13.5717 45.9994 14.8162 46.2155 14.9606 45.3889L15.9189 39.865C16.4917 36.5756 15.9906 33.6183 13.3723 31.0017C12.3217 29.9511 11.4678 28.7744 10.8084 27.5067C10.7045 27.295 10.4851 27.1589 10.2473 27.1589Z" fill="#FF0808"/>
<path fill-rule="evenodd" clip-rule="evenodd" d="M25.2423 19.8H27.8484V24.6066H25.9711L25.2423 19.8ZM8.5167 19.8H12.4867C12.4034 20.3672 12.4 20.955 12.49 21.5483L12.9556 24.6066H8.5167C8.01947 24.6066 6.98336 24.2216 6.98336 22.2044C6.98336 20.1855 8.02003 19.8 8.5167 19.8ZM19.1711 15.6911C21.5878 15.79 23.6123 17.48 23.9717 19.8211L24.7217 24.74C25.1295 27.4166 23.205 29.9222 20.3434 30.3533C17.4823 30.7844 14.8973 28.9566 14.4895 26.2794L13.7406 21.3611C13.3328 18.6866 15.2534 16.1816 18.1156 15.7505C18.4711 15.6972 18.8239 15.6772 19.1711 15.6911ZM39.4956 14.8089V29.9505L30.9106 28.3105C30.1811 28.1716 29.8084 27.8766 29.5306 27.3878C29.27 26.9266 29.1334 26.2389 29.1228 25.6544C29.1489 25.5528 29.1423 18.8489 29.1423 18.8489C29.1717 18.3572 29.3917 17.6339 29.7561 17.0805C30.1467 16.4961 30.6556 16.115 31.2861 16.0194L39.4956 14.8089ZM40.7539 14.6239C41.8128 14.5339 43.0161 15.1994 43.0161 15.9989V29.115C43.0161 30.3844 41.6828 30.3616 40.7539 30.1916V14.6239ZM19.0323 6.69554L20.2334 14.56C19.4923 14.4122 18.7145 14.3866 17.9245 14.505C17.1311 14.6239 16.3989 14.8844 15.7367 15.24L14.5389 7.3672C14.3445 6.11165 15.1867 4.97165 16.5756 4.89276C17.9678 4.8122 18.8639 5.59665 19.0323 6.69554ZM16.3617 3.62054C14.3273 3.82554 12.9956 5.63054 13.2911 7.55554L14.5878 16.03C13.7945 16.7161 13.1784 17.5783 12.8117 18.5416H9.41781C9.69781 16.9216 10.2534 15.3328 11.1128 13.8455C11.5728 13.05 12.1023 12.3061 12.6873 11.6322C13.0484 11.2272 12.7623 10.585 12.2217 10.5816C12.0328 10.5816 11.8573 10.6655 11.7356 10.8078C11.0989 11.5455 10.5256 12.3472 10.0223 13.215C9.04448 14.9105 8.41948 16.7333 8.13336 18.5883C6.97559 18.7994 5.72559 19.9594 5.72559 22.2044C5.72559 24.7022 7.27392 25.8655 8.51725 25.8655H13.1506L13.2395 26.4666C13.755 29.8439 17.0361 32.1239 20.5345 31.5972C23.5728 31.14 25.8156 28.71 26.0173 25.8655H27.8728C27.925 26.6639 28.0811 27.3878 28.4339 28.0061C28.8734 28.7878 29.6523 29.355 30.67 29.5483L37.2011 30.7928C37.1978 30.8016 37.1923 30.8078 37.1923 30.8155L36.1211 37.6733C36.02 38.3244 35.2445 38.5005 34.7061 38.6689C33.8467 38.9405 32.7184 38.9728 31.8361 38.8483L24.1506 36.6611C22.6811 36.2422 22.1484 35.6455 21.3673 34.2916C21.2489 34.0833 21.0289 33.9616 20.7911 33.97C20.3139 33.9878 20.0306 34.5117 20.2734 34.9216C21.1206 36.3861 22.065 37.3755 23.8011 37.8711L30.98 39.9189L29.9784 45.16C29.7906 46.0017 31.0778 46.25 31.2167 45.3972L32.2389 40.0555C33.17 40.1194 34.1628 40.1483 35.0517 39.8822C36.0956 39.5667 37.2011 38.9155 37.3661 37.8711L38.4372 31.0278L40.7223 31.4639C41.5906 31.6294 42.4322 31.5805 43.1211 31.1955C43.8122 30.8111 44.2756 30.0355 44.2756 29.1155V15.9989C44.2756 15.0778 43.8361 14.2883 43.1678 13.8316C42.545 13.4672 41.97 13.3366 41.3645 13.3278C41.165 13.3222 40.9595 13.3339 40.7484 13.3511L37.1956 13.8744C37.1923 13.8633 37.1867 13.8516 37.1806 13.8394C35.225 10.07 31.7467 7.15887 27.4356 6.00387C26.165 5.66609 24.8834 5.4922 23.6161 5.4772C23.1906 5.4722 22.7711 5.48331 22.3523 5.5122C21.4895 5.54998 21.5795 6.8522 22.4356 6.77054C23.9773 6.66387 25.555 6.80554 27.1111 7.22276C30.9423 8.24998 34.0467 10.7789 35.87 14.0711L31.1023 14.7772C30.0661 14.9305 29.2445 15.5761 28.7061 16.3861C28.2806 17.0255 28.0206 17.7783 27.9128 18.5416H24.9356C24.3628 16.93 23.1245 15.6683 21.5728 14.9883L20.2739 6.50165C19.9989 4.69665 18.395 3.4172 16.3617 3.62054Z" fill="#FF0808"/>
<path fill-rule="evenodd" clip-rule="evenodd" d="M18.8094 20.2283C19.825 20.07 20.7278 20.7233 20.8722 21.7016L21.19 23.8422C21.3356 24.8183 20.6639 25.7211 19.6483 25.8794C18.6328 26.0361 17.7333 25.3794 17.5878 24.4011L17.27 22.26C17.1256 21.2816 17.7939 20.3844 18.8094 20.2283ZM18.6239 18.9789C16.9539 19.2366 15.7767 20.7933 16.0228 22.4533L16.3406 24.595C16.5839 26.2527 18.16 27.3844 19.83 27.1239C21.5022 26.8661 22.6806 25.31 22.4344 23.6489L22.1167 21.5077C21.8706 19.85 20.2961 18.7177 18.6239 18.9789Z" fill="#FF0808"/>
</svg>
