<svg width="50" height="50" viewBox="0 0 50 50" fill="none" xmlns="http://www.w3.org/2000/svg">
<path d="M31.25 16.4062C31.6815 16.4062 32.0312 16.0565 32.0312 15.625C32.0312 15.1935 31.6815 14.8438 31.25 14.8438C30.8185 14.8438 30.4688 15.1935 30.4688 15.625C30.4688 16.0565 30.8185 16.4062 31.25 16.4062Z" fill="#FF0808"/>
<path d="M35.9375 16.4062C36.369 16.4062 36.7188 16.0565 36.7188 15.625C36.7188 15.1935 36.369 14.8438 35.9375 14.8438C35.506 14.8438 35.1562 15.1935 35.1562 15.625C35.1562 16.0565 35.506 16.4062 35.9375 16.4062Z" fill="#FF0808"/>
<path d="M33.5938 14.0625C34.0252 14.0625 34.375 13.7127 34.375 13.2812C34.375 12.8498 34.0252 12.5 33.5938 12.5C33.1623 12.5 32.8125 12.8498 32.8125 13.2812C32.8125 13.7127 33.1623 14.0625 33.5938 14.0625Z" fill="#FF0808"/>
<path d="M33.5938 18.75C34.0252 18.75 34.375 18.4002 34.375 17.9688C34.375 17.5373 34.0252 17.1875 33.5938 17.1875C33.1623 17.1875 32.8125 17.5373 32.8125 17.9688C32.8125 18.4002 33.1623 18.75 33.5938 18.75Z" fill="#FF0808"/>
<path d="M14.0625 16.4062H15.625V17.9688C15.625 18.176 15.7073 18.3747 15.8538 18.5212C16.0003 18.6677 16.199 18.75 16.4062 18.75C16.6135 18.75 16.8122 18.6677 16.9587 18.5212C17.1052 18.3747 17.1875 18.176 17.1875 17.9688V16.4062H18.75C18.9572 16.4062 19.1559 16.3239 19.3024 16.1774C19.4489 16.0309 19.5312 15.8322 19.5312 15.625C19.5312 15.4178 19.4489 15.2191 19.3024 15.0726C19.1559 14.9261 18.9572 14.8438 18.75 14.8438H17.1875V13.2812C17.1875 13.074 17.1052 12.8753 16.9587 12.7288C16.8122 12.5823 16.6135 12.5 16.4062 12.5C16.199 12.5 16.0003 12.5823 15.8538 12.7288C15.7073 12.8753 15.625 13.074 15.625 13.2812V14.8438H14.0625C13.8553 14.8438 13.6566 14.9261 13.5101 15.0726C13.3636 15.2191 13.2812 15.4178 13.2812 15.625C13.2812 15.8322 13.3636 16.0309 13.5101 16.1774C13.6566 16.3239 13.8553 16.4062 14.0625 16.4062Z" fill="#FF0808"/>
<path d="M22.6562 18.75H23.4375C23.6447 18.75 23.8434 18.6677 23.9899 18.5212C24.1364 18.3747 24.2188 18.176 24.2188 17.9688C24.2188 17.7615 24.1364 17.5628 23.9899 17.4163C23.8434 17.2698 23.6447 17.1875 23.4375 17.1875H22.6562C22.449 17.1875 22.2503 17.2698 22.1038 17.4163C21.9573 17.5628 21.875 17.7615 21.875 17.9688C21.875 18.176 21.9573 18.3747 22.1038 18.5212C22.2503 18.6677 22.449 18.75 22.6562 18.75Z" fill="#FF0808"/>
<path d="M26.5625 18.75H27.3438C27.551 18.75 27.7497 18.6677 27.8962 18.5212C28.0427 18.3747 28.125 18.176 28.125 17.9688C28.125 17.7615 28.0427 17.5628 27.8962 17.4163C27.7497 17.2698 27.551 17.1875 27.3438 17.1875H26.5625C26.3553 17.1875 26.1566 17.2698 26.0101 17.4163C25.8636 17.5628 25.7812 17.7615 25.7812 17.9688C25.7812 18.176 25.8636 18.3747 26.0101 18.5212C26.1566 18.6677 26.3553 18.75 26.5625 18.75Z" fill="#FF0808"/>
<path d="M39.6152 8.04102L38.0527 6.47852C37.906 6.33211 37.7072 6.24992 37.5 6.25H12.5C12.2928 6.24992 12.094 6.33211 11.9473 6.47852L10.3848 8.04102C10.2384 8.1877 10.1562 8.3865 10.1563 8.59375V26.5625C10.1562 26.7697 10.2384 26.9685 10.3848 27.1152L11.9473 28.6777C12.094 28.8241 12.2928 28.9063 12.5 28.9062H17.1875C17.3515 28.9063 17.5113 28.8547 17.6443 28.7588C17.7774 28.6629 17.8769 28.5276 17.9287 28.3721L20.0947 21.875H29.8154L32.0742 28.3809C32.1274 28.5343 32.2271 28.6674 32.3594 28.7615C32.4917 28.8557 32.6501 28.9063 32.8125 28.9062H37.5C37.7072 28.9063 37.906 28.8241 38.0527 28.6777L39.6152 27.1152C39.7616 26.9685 39.8438 26.7697 39.8438 26.5625V8.59375C39.8438 8.3865 39.7616 8.1877 39.6152 8.04102ZM27.9053 7.8125L27.5146 9.375H22.4854L22.0947 7.8125H27.9053ZM38.2812 26.2393L37.1768 27.3438H33.3682L31.1094 20.8379C31.0562 20.6844 30.9565 20.5514 30.8242 20.4572C30.6919 20.3631 30.5335 20.3125 30.3711 20.3125H19.5312C19.3673 20.3125 19.2074 20.3641 19.0744 20.4599C18.9414 20.5558 18.8419 20.6911 18.79 20.8467L16.624 27.3438H12.8232L11.7188 26.2393V8.91699L12.8232 7.8125H20.4834L21.1172 10.3457C21.1594 10.5147 21.257 10.6648 21.3943 10.772C21.5316 10.8792 21.7008 10.9375 21.875 10.9375H28.125C28.2992 10.9375 28.4684 10.8792 28.6057 10.772C28.743 10.6648 28.8406 10.5147 28.8828 10.3457L29.5166 7.8125H37.1768L38.2812 8.91699V26.2393Z" fill="#FF0808"/>
<path d="M48.4375 30.4688H1.5625C1.3553 30.4688 1.15659 30.5511 1.01007 30.6976C0.86356 30.8441 0.78125 31.0428 0.78125 31.25V42.1875C0.78125 42.3947 0.86356 42.5934 1.01007 42.7399C1.15659 42.8864 1.3553 42.9688 1.5625 42.9688H2.34375V44.5312C2.34375 44.7385 2.42606 44.9372 2.57257 45.0837C2.71909 45.2302 2.9178 45.3125 3.125 45.3125H10.9375C11.1447 45.3125 11.3434 45.2302 11.4899 45.0837C11.6364 44.9372 11.7188 44.7385 11.7188 44.5312V42.9688H38.2812V44.5312C38.2812 44.7385 38.3636 44.9372 38.5101 45.0837C38.6566 45.2302 38.8553 45.3125 39.0625 45.3125H46.875C47.0822 45.3125 47.2809 45.2302 47.4274 45.0837C47.5739 44.9372 47.6562 44.7385 47.6562 44.5312V42.9688H48.4375C48.6447 42.9688 48.8434 42.8864 48.9899 42.7399C49.1364 42.5934 49.2188 42.3947 49.2188 42.1875V31.25C49.2188 31.0428 49.1364 30.8441 48.9899 30.6976C48.8434 30.5511 48.6447 30.4688 48.4375 30.4688ZM29.9863 32.0312L29.2051 33.5938H20.7949L20.0137 32.0312H29.9863ZM10.1562 43.75H3.90625V42.9688H10.1562V43.75ZM46.0938 43.75H39.8438V42.9688H46.0938V43.75ZM47.6562 41.4062H2.34375V32.0312H18.2676L19.6133 34.7246C19.6783 34.8543 19.7782 34.9634 19.9017 35.0396C20.0251 35.1159 20.1674 35.1562 20.3125 35.1562H29.6875C29.8326 35.1562 29.9749 35.1159 30.0983 35.0396C30.2218 34.9634 30.3217 34.8543 30.3867 34.7246L31.7324 32.0312H47.6562V41.4062Z" fill="#FF0808"/>
<path d="M12.5 35.9375C12.2928 35.9375 12.0941 36.0198 11.9476 36.1663C11.8011 36.3128 11.7188 36.5115 11.7188 36.7188V39.0625C11.7188 39.2697 11.8011 39.4684 11.9476 39.6149C12.0941 39.7614 12.2928 39.8438 12.5 39.8438H37.5C37.7072 39.8438 37.9059 39.7614 38.0524 39.6149C38.1989 39.4684 38.2812 39.2697 38.2812 39.0625V36.7188C38.2812 36.5115 38.1989 36.3128 38.0524 36.1663C37.9059 36.0198 37.7072 35.9375 37.5 35.9375H12.5ZM36.7188 38.2812H13.2812V37.5H36.7188V38.2812Z" fill="#FF0808"/>
<path d="M7.8125 33.5938H4.6875C4.4803 33.5938 4.28159 33.6761 4.13507 33.8226C3.98856 33.9691 3.90625 34.1678 3.90625 34.375V39.0625C3.90625 39.2697 3.98856 39.4684 4.13507 39.6149C4.28159 39.7614 4.4803 39.8438 4.6875 39.8438H7.8125C8.0197 39.8438 8.21841 39.7614 8.36493 39.6149C8.51144 39.4684 8.59375 39.2697 8.59375 39.0625V34.375C8.59375 34.1678 8.51144 33.9691 8.36493 33.8226C8.21841 33.6761 8.0197 33.5938 7.8125 33.5938ZM7.03125 35.1562V35.9375H5.46875V35.1562H7.03125ZM5.46875 38.2812V37.5H7.03125V38.2812H5.46875Z" fill="#FF0808"/>
<path d="M41.4062 35.1562H45.3125C45.5197 35.1562 45.7184 35.0739 45.8649 34.9274C46.0114 34.7809 46.0938 34.5822 46.0938 34.375C46.0938 34.1678 46.0114 33.9691 45.8649 33.8226C45.7184 33.6761 45.5197 33.5938 45.3125 33.5938H41.4062C41.199 33.5938 41.0003 33.6761 40.8538 33.8226C40.7073 33.9691 40.625 34.1678 40.625 34.375C40.625 34.5822 40.7073 34.7809 40.8538 34.9274C41.0003 35.0739 41.199 35.1562 41.4062 35.1562Z" fill="#FF0808"/>
<path d="M45.3125 35.9375H43.75C43.5428 35.9375 43.3441 36.0198 43.1976 36.1663C43.0511 36.3128 42.9688 36.5115 42.9688 36.7188C42.9688 36.926 43.0511 37.1247 43.1976 37.2712C43.3441 37.4177 43.5428 37.5 43.75 37.5H45.3125C45.5197 37.5 45.7184 37.4177 45.8649 37.2712C46.0114 37.1247 46.0938 36.926 46.0938 36.7188C46.0938 36.5115 46.0114 36.3128 45.8649 36.1663C45.7184 36.0198 45.5197 35.9375 45.3125 35.9375Z" fill="#FF0808"/>
</svg>
