<svg width="137" height="50" viewBox="0 0 137 50" fill="none" xmlns="http://www.w3.org/2000/svg">
<path fill-rule="evenodd" clip-rule="evenodd" d="M34.6585 7.25653L41.9971 19.9666L61.6879 0H70.4332L45.1922 25.5076L54.0596 40.8569H46.9168L40.6688 30.0376L24.6038 46.1003H15.8616L37.4671 24.492L27.5187 7.25653H34.6585Z" fill="url(#paint0_linear_443_290)"/>
<path fill-rule="evenodd" clip-rule="evenodd" d="M24.4695 7.25647L34.3062 24.2997L8.74245 50H0L26.5822 23.2798L17.3298 7.25647H24.4695Z" fill="url(#paint1_linear_443_290)"/>
<path d="M55 21.25H66.8405L69.7265 24.1429V30.7054L66.8136 33.625H58.6681V41.25H55V21.25ZM65.1683 30.5714L66.1123 29.6339V25.2411L65.1683 24.3036H58.6681V30.5714H65.1683Z" fill="white"/>
<path d="M71.6276 36.9196V24.3304L74.7293 21.25H84.4391L87.5408 24.3304V36.9196L84.4391 40H74.7293L71.6276 36.9196ZM82.4971 36.8929L83.8727 35.5268V25.7232L82.4971 24.3571H76.6712L75.2957 25.7232V35.5268L76.6712 36.8929H82.4971Z" fill="white"/>
<path d="M105.078 33.7857V40H101.409V34.6161L99.7912 32.8214H93.9114V40H90.2432V21.25H102.084L104.97 24.1429V29.8214L103.136 31.6696L105.078 33.7857ZM93.9114 29.8214H100.412L101.356 28.8839V25.2411L100.412 24.3036H93.9114V29.8214Z" fill="white"/>
<path d="M111.798 24.3304H106.161V21.25H121.103V24.3304H115.466V40H111.798V24.3304Z" fill="white"/>
<path d="M121.631 37.1071V34.4286H125.246V36.0089L126.136 36.8929H131.719L132.636 35.9821V32.875L131.746 31.9911H124.598L121.685 29.0982V24.1429L124.598 21.25H133.121L136.034 24.1429V26.8482H132.42V25.2411L131.53 24.3571H126.19L125.3 25.2411V28L126.19 28.8839H133.337L136.25 31.7768V37.0536L133.283 40H124.544L121.631 37.1071Z" fill="white"/>
<defs>
<linearGradient id="paint0_linear_443_290" x1="15.8316" y1="46.9995" x2="77.5485" y2="11.2317" gradientUnits="userSpaceOnUse">
<stop stop-color="#FF0808"/>
<stop offset="1" stop-color="#860000"/>
</linearGradient>
<linearGradient id="paint1_linear_443_290" x1="-0.0188643" y1="50.8337" x2="44.8781" y2="33.1919" gradientUnits="userSpaceOnUse">
<stop stop-color="#FF0808"/>
<stop offset="1" stop-color="#860000"/>
</linearGradient>
</defs>
</svg>
